<mxfile host="app.diagrams.net" modified="2023-09-26T15:24:15.812Z" agent="Mozilla/5.0 (X11; Linux x86_64; rv:109.0) Gecko/20100101 Firefox/114.0" etag="_45x4Dtrj8bwi43ZBCpV" version="21.8.2" type="github">
  <diagram name="Página-1" id="NJdU9fVeHj6Fjf7Cu1yi">
    <mxGraphModel dx="1434" dy="795" grid="1" gridSize="10" guides="1" tooltips="1" connect="1" arrows="1" fold="1" page="1" pageScale="1" pageWidth="827" pageHeight="1169" math="0" shadow="0">
      <root>
        <mxCell id="0" />
        <mxCell id="1" parent="0" />
        <mxCell id="nCzkJn4os95iN65ArYI9-4" value="" style="edgeStyle=orthogonalEdgeStyle;rounded=0;orthogonalLoop=1;jettySize=auto;html=1;" edge="1" parent="1" source="nCzkJn4os95iN65ArYI9-2">
          <mxGeometry relative="1" as="geometry">
            <mxPoint x="240" y="70" as="targetPoint" />
          </mxGeometry>
        </mxCell>
        <mxCell id="nCzkJn4os95iN65ArYI9-2" value="Fábricas" style="rounded=0;whiteSpace=wrap;html=1;fillColor=#f5f5f5;fontColor=#333333;strokeColor=#666666;" vertex="1" parent="1">
          <mxGeometry x="40" y="40" width="120" height="60" as="geometry" />
        </mxCell>
        <mxCell id="nCzkJn4os95iN65ArYI9-7" value="" style="edgeStyle=orthogonalEdgeStyle;rounded=0;orthogonalLoop=1;jettySize=auto;html=1;" edge="1" parent="1" source="nCzkJn4os95iN65ArYI9-5" target="nCzkJn4os95iN65ArYI9-6">
          <mxGeometry relative="1" as="geometry" />
        </mxCell>
        <mxCell id="nCzkJn4os95iN65ArYI9-5" value="fabrican" style="rhombus;whiteSpace=wrap;html=1;fillColor=#d5e8d4;strokeColor=#82b366;" vertex="1" parent="1">
          <mxGeometry x="240" y="30" width="80" height="80" as="geometry" />
        </mxCell>
        <mxCell id="nCzkJn4os95iN65ArYI9-6" value="Artículos" style="whiteSpace=wrap;html=1;fillColor=#f5f5f5;fontColor=#333333;strokeColor=#666666;" vertex="1" parent="1">
          <mxGeometry x="400" y="40" width="120" height="60" as="geometry" />
        </mxCell>
        <mxCell id="nCzkJn4os95iN65ArYI9-12" style="edgeStyle=orthogonalEdgeStyle;rounded=0;orthogonalLoop=1;jettySize=auto;html=1;" edge="1" parent="1" source="nCzkJn4os95iN65ArYI9-10" target="nCzkJn4os95iN65ArYI9-11">
          <mxGeometry relative="1" as="geometry" />
        </mxCell>
        <mxCell id="nCzkJn4os95iN65ArYI9-10" value="Cliente" style="rounded=0;whiteSpace=wrap;html=1;fillColor=#f5f5f5;fontColor=#333333;strokeColor=#666666;" vertex="1" parent="1">
          <mxGeometry x="220" y="160" width="120" height="60" as="geometry" />
        </mxCell>
        <mxCell id="nCzkJn4os95iN65ArYI9-13" style="edgeStyle=orthogonalEdgeStyle;rounded=0;orthogonalLoop=1;jettySize=auto;html=1;" edge="1" parent="1" source="nCzkJn4os95iN65ArYI9-11" target="nCzkJn4os95iN65ArYI9-6">
          <mxGeometry relative="1" as="geometry" />
        </mxCell>
        <mxCell id="nCzkJn4os95iN65ArYI9-11" value="pide" style="rhombus;whiteSpace=wrap;html=1;fillColor=#d5e8d4;strokeColor=#82b366;" vertex="1" parent="1">
          <mxGeometry x="420" y="150" width="80" height="80" as="geometry" />
        </mxCell>
      </root>
    </mxGraphModel>
  </diagram>
</mxfile>
